<mxfile host="app.diagrams.net" modified="2022-05-21T15:51:42.383Z" agent="5.0 (Macintosh; Intel Mac OS X 10_15_7) AppleWebKit/537.36 (KHTML, like Gecko) Chrome/101.0.4951.64 Safari/537.36" etag="Q_xb4XZau-KqNWXftyqz" version="18.0.5" type="github">
  <diagram id="3228e29e-7158-1315-38df-8450db1d8a1d" name="Page-1">
    <mxGraphModel dx="553" dy="-181" grid="0" gridSize="10" guides="1" tooltips="1" connect="1" arrows="1" fold="1" page="1" pageScale="1" pageWidth="370" pageHeight="220" background="#EFF1F3" math="0" shadow="0">
      <root>
        <mxCell id="0" />
        <mxCell id="1" parent="0" />
        <mxCell id="yyw1uqhGUR_v7xHCsKaX-17" value="&lt;font color=&quot;#ffffff&quot; style=&quot;font-size: 17px;&quot;&gt;&lt;span style=&quot;font-size: 17px;&quot;&gt;&lt;br style=&quot;font-size: 17px;&quot;&gt;&lt;/span&gt;&lt;/font&gt;" style="whiteSpace=wrap;html=1;aspect=fixed;rounded=1;strokeColor=none;fillColor=#535E80;fontSize=17;" parent="1" vertex="1">
          <mxGeometry x="287" y="925" width="122" height="122" as="geometry" />
        </mxCell>
        <mxCell id="yyw1uqhGUR_v7xHCsKaX-19" value="&lt;font color=&quot;#ffffff&quot; style=&quot;font-size: 17px;&quot;&gt;user0&lt;/font&gt;" style="text;html=1;strokeColor=none;fillColor=none;align=center;verticalAlign=middle;whiteSpace=wrap;rounded=0;dashed=1;fontColor=#535E80;fontSize=17;" parent="1" vertex="1">
          <mxGeometry x="323" y="933" width="55" height="22" as="geometry" />
        </mxCell>
        <mxCell id="GSjFHF2CIG4gb6S8epUb-2" value="" style="rounded=1;whiteSpace=wrap;html=1;fillColor=#C2C2C2;strokeColor=none;fontSize=17;" parent="1" vertex="1">
          <mxGeometry x="11" y="933" width="127" height="233" as="geometry" />
        </mxCell>
        <mxCell id="GSjFHF2CIG4gb6S8epUb-7" value="数据" style="rounded=1;whiteSpace=wrap;html=1;fillColor=#9AA4C0;strokeColor=default;fontColor=#000000;align=center;fontSize=13;" parent="1" vertex="1">
          <mxGeometry x="63" y="1010.93" width="66" height="24" as="geometry" />
        </mxCell>
        <mxCell id="GSjFHF2CIG4gb6S8epUb-8" value="&lt;font style=&quot;font-size: 13px;&quot;&gt;2kw&lt;/font&gt;" style="rounded=1;whiteSpace=wrap;html=1;fillColor=#9AA4C0;strokeColor=default;fontColor=#000000;fontSize=13;" parent="1" vertex="1">
          <mxGeometry x="21" y="1010.93" width="42" height="24" as="geometry" />
        </mxCell>
        <mxCell id="GSjFHF2CIG4gb6S8epUb-27" value="&lt;font color=&quot;#ffffff&quot; style=&quot;font-size: 17px;&quot;&gt;user&lt;/font&gt;" style="text;html=1;strokeColor=none;fillColor=none;align=center;verticalAlign=middle;whiteSpace=wrap;rounded=0;dashed=1;fontColor=#535E80;fontSize=17;" parent="1" vertex="1">
          <mxGeometry x="43.5" y="933" width="55" height="22" as="geometry" />
        </mxCell>
        <mxCell id="GSjFHF2CIG4gb6S8epUb-30" value="" style="endArrow=none;dashed=1;html=1;rounded=0;strokeWidth=3;strokeColor=#000000;fontSize=17;" parent="1" edge="1">
          <mxGeometry width="50" height="50" relative="1" as="geometry">
            <mxPoint x="28.129999999999995" y="1056.39" as="sourcePoint" />
            <mxPoint x="404" y="1056" as="targetPoint" />
          </mxGeometry>
        </mxCell>
        <mxCell id="GSjFHF2CIG4gb6S8epUb-32" value="&lt;font color=&quot;#535e80&quot;&gt;&lt;span style=&quot;font-size: 17px;&quot;&gt;&lt;b&gt;根据id范围分表&lt;/b&gt;&lt;/span&gt;&lt;/font&gt;" style="text;html=1;strokeColor=none;fillColor=none;align=center;verticalAlign=middle;whiteSpace=wrap;rounded=0;" parent="1" vertex="1">
          <mxGeometry x="143.5" y="894" width="123" height="31" as="geometry" />
        </mxCell>
        <mxCell id="GSjFHF2CIG4gb6S8epUb-42" value="" style="shape=image;html=1;verticalAlign=top;verticalLabelPosition=bottom;labelBackgroundColor=#ffffff;imageAspect=0;aspect=fixed;image=https://cdn1.iconfinder.com/data/icons/ionicons-outline-vol-1/512/cut-outline-128.png;fontSize=13;fontColor=#535E80;fillColor=#4A919B;" parent="1" vertex="1">
          <mxGeometry x="7" y="1043.8700000000001" width="26.13" height="26.13" as="geometry" />
        </mxCell>
        <mxCell id="SW3bWeaWtJsJV6UMWV42-2" value="" style="shape=flexArrow;endArrow=classic;html=1;rounded=0;strokeColor=none;fillColor=#4A919B;fontSize=17;" parent="1" edge="1">
          <mxGeometry width="50" height="50" relative="1" as="geometry">
            <mxPoint x="165.5" y="1121.5300000000002" as="sourcePoint" />
            <mxPoint x="248.5" y="1121.7800000000002" as="targetPoint" />
          </mxGeometry>
        </mxCell>
        <mxCell id="SW3bWeaWtJsJV6UMWV42-4" value="&lt;font color=&quot;#535e80&quot; style=&quot;font-size: 13px;&quot;&gt;range = [1~2kw]&lt;/font&gt;" style="text;html=1;strokeColor=none;fillColor=none;align=center;verticalAlign=middle;whiteSpace=wrap;rounded=0;fontSize=17;" parent="1" vertex="1">
          <mxGeometry x="153" y="950" width="104" height="41" as="geometry" />
        </mxCell>
        <mxCell id="SW3bWeaWtJsJV6UMWV42-5" value="&lt;font color=&quot;#4a919b&quot; style=&quot;font-size: 13px;&quot;&gt;range = [2kw+1~4kw]&lt;/font&gt;" style="text;html=1;strokeColor=none;fillColor=none;align=center;verticalAlign=middle;whiteSpace=wrap;rounded=0;fontSize=17;" parent="1" vertex="1">
          <mxGeometry x="149" y="1073.53" width="131" height="35.47" as="geometry" />
        </mxCell>
        <mxCell id="SW3bWeaWtJsJV6UMWV42-6" value="" style="shape=flexArrow;endArrow=classic;html=1;rounded=0;strokeColor=none;fillColor=#535E80;fontSize=17;" parent="1" edge="1">
          <mxGeometry width="50" height="50" relative="1" as="geometry">
            <mxPoint x="165.5" y="998.5699999999999" as="sourcePoint" />
            <mxPoint x="248.5" y="998.8199999999999" as="targetPoint" />
          </mxGeometry>
        </mxCell>
        <mxCell id="snNPx92-vVBy3uUKYPBh-11" value="······" style="rounded=1;whiteSpace=wrap;html=1;fillColor=#9AA4C0;strokeColor=default;fontColor=#000000;align=center;fontSize=13;fontStyle=1" vertex="1" parent="1">
          <mxGeometry x="63" y="986.93" width="66" height="24" as="geometry" />
        </mxCell>
        <mxCell id="snNPx92-vVBy3uUKYPBh-12" value="&lt;font style=&quot;font-size: 13px;&quot;&gt;···&lt;/font&gt;" style="rounded=1;whiteSpace=wrap;html=1;fillColor=#9AA4C0;strokeColor=default;fontColor=#000000;fontSize=13;fontStyle=1" vertex="1" parent="1">
          <mxGeometry x="21" y="986.93" width="42" height="24" as="geometry" />
        </mxCell>
        <mxCell id="snNPx92-vVBy3uUKYPBh-13" value="数据" style="rounded=1;whiteSpace=wrap;html=1;fillColor=#9AA4C0;strokeColor=default;fontColor=#000000;align=center;fontSize=13;" vertex="1" parent="1">
          <mxGeometry x="63" y="962.93" width="66" height="24" as="geometry" />
        </mxCell>
        <mxCell id="snNPx92-vVBy3uUKYPBh-14" value="&lt;font style=&quot;font-size: 13px;&quot;&gt;1&lt;/font&gt;" style="rounded=1;whiteSpace=wrap;html=1;fillColor=#9AA4C0;strokeColor=default;fontColor=#000000;fontSize=13;" vertex="1" parent="1">
          <mxGeometry x="21" y="962.93" width="42" height="24" as="geometry" />
        </mxCell>
        <mxCell id="snNPx92-vVBy3uUKYPBh-15" value="数据" style="rounded=1;whiteSpace=wrap;html=1;fillColor=#9AC7BF;strokeColor=default;fontColor=#000000;align=center;fontSize=13;" vertex="1" parent="1">
          <mxGeometry x="62.5" y="1121.53" width="66" height="24" as="geometry" />
        </mxCell>
        <mxCell id="snNPx92-vVBy3uUKYPBh-16" value="&lt;font style=&quot;font-size: 13px;&quot;&gt;4kw&lt;/font&gt;" style="rounded=1;whiteSpace=wrap;html=1;fillColor=#9AC7BF;strokeColor=default;fontColor=#000000;fontSize=13;" vertex="1" parent="1">
          <mxGeometry x="20.5" y="1121.53" width="42" height="24" as="geometry" />
        </mxCell>
        <mxCell id="snNPx92-vVBy3uUKYPBh-17" value="······" style="rounded=1;whiteSpace=wrap;html=1;fillColor=#9AC7BF;strokeColor=default;fontColor=#000000;align=center;fontSize=13;fontStyle=1" vertex="1" parent="1">
          <mxGeometry x="62.5" y="1097.53" width="66" height="24" as="geometry" />
        </mxCell>
        <mxCell id="snNPx92-vVBy3uUKYPBh-18" value="&lt;font style=&quot;font-size: 13px;&quot;&gt;···&lt;/font&gt;" style="rounded=1;whiteSpace=wrap;html=1;fillColor=#9AC7BF;strokeColor=default;fontColor=#000000;fontSize=13;fontStyle=1" vertex="1" parent="1">
          <mxGeometry x="20.5" y="1097.53" width="42" height="24" as="geometry" />
        </mxCell>
        <mxCell id="snNPx92-vVBy3uUKYPBh-19" value="数据" style="rounded=1;whiteSpace=wrap;html=1;fillColor=#9AC7BF;strokeColor=default;fontColor=#000000;align=center;fontSize=13;" vertex="1" parent="1">
          <mxGeometry x="62.5" y="1073.53" width="66" height="24" as="geometry" />
        </mxCell>
        <mxCell id="snNPx92-vVBy3uUKYPBh-20" value="2kw+1" style="rounded=1;whiteSpace=wrap;html=1;fillColor=#9AC7BF;strokeColor=default;fontColor=#000000;fontSize=13;" vertex="1" parent="1">
          <mxGeometry x="20.5" y="1073.53" width="42" height="24" as="geometry" />
        </mxCell>
        <mxCell id="snNPx92-vVBy3uUKYPBh-21" value="数据" style="rounded=1;whiteSpace=wrap;html=1;fillColor=#9AA4C0;strokeColor=default;fontColor=#000000;align=center;fontSize=13;" vertex="1" parent="1">
          <mxGeometry x="337" y="1009.93" width="66" height="24" as="geometry" />
        </mxCell>
        <mxCell id="snNPx92-vVBy3uUKYPBh-22" value="&lt;font style=&quot;font-size: 13px;&quot;&gt;2kw&lt;/font&gt;" style="rounded=1;whiteSpace=wrap;html=1;fillColor=#9AA4C0;strokeColor=default;fontColor=#000000;fontSize=13;" vertex="1" parent="1">
          <mxGeometry x="295" y="1009.93" width="42" height="24" as="geometry" />
        </mxCell>
        <mxCell id="snNPx92-vVBy3uUKYPBh-23" value="······" style="rounded=1;whiteSpace=wrap;html=1;fillColor=#9AA4C0;strokeColor=default;fontColor=#000000;align=center;fontSize=13;fontStyle=1" vertex="1" parent="1">
          <mxGeometry x="337" y="985.93" width="66" height="24" as="geometry" />
        </mxCell>
        <mxCell id="snNPx92-vVBy3uUKYPBh-24" value="&lt;font style=&quot;font-size: 13px;&quot;&gt;···&lt;/font&gt;" style="rounded=1;whiteSpace=wrap;html=1;fillColor=#9AA4C0;strokeColor=default;fontColor=#000000;fontSize=13;fontStyle=1" vertex="1" parent="1">
          <mxGeometry x="295" y="985.93" width="42" height="24" as="geometry" />
        </mxCell>
        <mxCell id="snNPx92-vVBy3uUKYPBh-25" value="数据" style="rounded=1;whiteSpace=wrap;html=1;fillColor=#9AA4C0;strokeColor=default;fontColor=#000000;align=center;fontSize=13;" vertex="1" parent="1">
          <mxGeometry x="337" y="961.93" width="66" height="24" as="geometry" />
        </mxCell>
        <mxCell id="snNPx92-vVBy3uUKYPBh-26" value="&lt;font style=&quot;font-size: 13px;&quot;&gt;1&lt;/font&gt;" style="rounded=1;whiteSpace=wrap;html=1;fillColor=#9AA4C0;strokeColor=default;fontColor=#000000;fontSize=13;" vertex="1" parent="1">
          <mxGeometry x="295" y="961.93" width="42" height="24" as="geometry" />
        </mxCell>
        <mxCell id="snNPx92-vVBy3uUKYPBh-27" value="&lt;font color=&quot;#ffffff&quot; style=&quot;font-size: 17px;&quot;&gt;&lt;span style=&quot;font-size: 17px;&quot;&gt;&lt;br style=&quot;font-size: 17px;&quot;&gt;&lt;/span&gt;&lt;/font&gt;" style="whiteSpace=wrap;html=1;aspect=fixed;rounded=1;strokeColor=none;fillColor=#4A919B;fontSize=17;" vertex="1" parent="1">
          <mxGeometry x="287" y="1063" width="122" height="122" as="geometry" />
        </mxCell>
        <mxCell id="snNPx92-vVBy3uUKYPBh-28" value="&lt;font color=&quot;#ffffff&quot; style=&quot;font-size: 17px;&quot;&gt;user1&lt;/font&gt;" style="text;html=1;strokeColor=none;fillColor=none;align=center;verticalAlign=middle;whiteSpace=wrap;rounded=0;dashed=1;fontColor=#535E80;fontSize=17;" vertex="1" parent="1">
          <mxGeometry x="323" y="1071" width="55" height="22" as="geometry" />
        </mxCell>
        <mxCell id="snNPx92-vVBy3uUKYPBh-35" value="数据" style="rounded=1;whiteSpace=wrap;html=1;fillColor=#9AC7BF;strokeColor=default;fontColor=#000000;align=center;fontSize=13;" vertex="1" parent="1">
          <mxGeometry x="336" y="1148" width="66" height="24" as="geometry" />
        </mxCell>
        <mxCell id="snNPx92-vVBy3uUKYPBh-36" value="&lt;font style=&quot;font-size: 13px;&quot;&gt;4kw&lt;/font&gt;" style="rounded=1;whiteSpace=wrap;html=1;fillColor=#9AC7BF;strokeColor=default;fontColor=#000000;fontSize=13;" vertex="1" parent="1">
          <mxGeometry x="294" y="1148" width="42" height="24" as="geometry" />
        </mxCell>
        <mxCell id="snNPx92-vVBy3uUKYPBh-37" value="······" style="rounded=1;whiteSpace=wrap;html=1;fillColor=#9AC7BF;strokeColor=default;fontColor=#000000;align=center;fontSize=13;fontStyle=1" vertex="1" parent="1">
          <mxGeometry x="336" y="1124" width="66" height="24" as="geometry" />
        </mxCell>
        <mxCell id="snNPx92-vVBy3uUKYPBh-38" value="&lt;font style=&quot;font-size: 13px;&quot;&gt;···&lt;/font&gt;" style="rounded=1;whiteSpace=wrap;html=1;fillColor=#9AC7BF;strokeColor=default;fontColor=#000000;fontSize=13;fontStyle=1" vertex="1" parent="1">
          <mxGeometry x="294" y="1124" width="42" height="24" as="geometry" />
        </mxCell>
        <mxCell id="snNPx92-vVBy3uUKYPBh-39" value="数据" style="rounded=1;whiteSpace=wrap;html=1;fillColor=#9AC7BF;strokeColor=default;fontColor=#000000;align=center;fontSize=13;" vertex="1" parent="1">
          <mxGeometry x="336" y="1100" width="66" height="24" as="geometry" />
        </mxCell>
        <mxCell id="snNPx92-vVBy3uUKYPBh-40" value="2kw+1" style="rounded=1;whiteSpace=wrap;html=1;fillColor=#9AC7BF;strokeColor=default;fontColor=#000000;fontSize=13;" vertex="1" parent="1">
          <mxGeometry x="294" y="1100" width="42" height="24" as="geometry" />
        </mxCell>
      </root>
    </mxGraphModel>
  </diagram>
</mxfile>
